<svg viewBox="0 0 15.7501 14.0625" fill="none" xmlns="http://www.w3.org/2000/svg" xmlns:xlink="http://www.w3.org/1999/xlink" x="0" y="0"><g id="Group_2">
<path id="Vector_6" fill-rule="evenodd" clip-rule="evenodd" d="M5.0626,2.812c0,-0.745 0.2963,-1.461 0.8238,-1.988c0.5274,-0.528 1.2428,-0.824 1.9887,-0.824c0.7459,0 1.4613,0.296 1.9887,0.824c0.5275,0.527 0.8238,1.243 0.8238,1.988c0,0.746 -0.2963,1.462 -0.8238,1.989c-0.5274,0.528 -1.2428,0.824 -1.9887,0.824c-0.7459,0 -1.4613,-0.296 -1.9887,-0.824c-0.5275,-0.527 -0.8238,-1.243 -0.8238,-1.989zM10.6876,5.062c0,-0.596 0.2371,-1.169 0.659,-1.59c0.422,-0.422 0.9943,-0.66 1.591,-0.66c0.5967,0 1.169,0.238 1.591,0.66c0.4219,0.421 0.659,0.994 0.659,1.59c0,0.597 -0.2371,1.17 -0.659,1.591c-0.422,0.422 -0.9943,0.659 -1.591,0.659c-0.5967,0 -1.169,-0.237 -1.591,-0.659c-0.4219,-0.421 -0.659,-0.994 -0.659,-1.591zM0.5626,5.062c0,-0.596 0.2371,-1.169 0.659,-1.59c0.422,-0.422 0.9943,-0.66 1.591,-0.66c0.5967,0 1.169,0.238 1.591,0.66c0.4219,0.421 0.659,0.994 0.659,1.59c0,0.597 -0.2371,1.17 -0.659,1.591c-0.422,0.422 -0.9943,0.659 -1.591,0.659c-0.5967,0 -1.169,-0.237 -1.591,-0.659c-0.4219,-0.421 -0.659,-0.994 -0.659,-1.591zM3.6076,9.088c0.4575,-0.717 1.0883,-1.307 1.8342,-1.716c0.7459,-0.409 1.5828,-0.622 2.4333,-0.622c0.7124,-0.001 1.4168,0.149 2.0673,0.44c0.6505,0.29 1.2322,0.715 1.7072,1.246c0.4751,0.53 0.8326,1.156 1.0492,1.834c0.2167,0.679 0.2876,1.396 0.208,2.103c-0.0097,0.088 -0.04,0.173 -0.0885,0.247c-0.0485,0.074 -0.1137,0.135 -0.1904,0.179c-1.4464,0.83 -3.0853,1.266 -4.7528,1.263c-1.6675,0.003 -3.3065,-0.432 -4.7527,-1.263c-0.0768,-0.044 -0.142,-0.105 -0.1905,-0.179c-0.0485,-0.074 -0.0788,-0.159 -0.0886,-0.247c-0.1259,-1.15 0.1436,-2.308 0.7643,-3.284z" fill="currentColor"/>
<path id="Vector_7" d="M2.6866,8.44c-0.7397,1.142 -1.0843,2.495 -0.981,3.852c-0.4504,-0.069 -0.8933,-0.179 -1.323,-0.33l-0.0863,-0.03c-0.0769,-0.028 -0.1443,-0.077 -0.1939,-0.141c-0.0497,-0.065 -0.0795,-0.143 -0.0858,-0.225l-0.0075,-0.09c-0.0303,-0.377 0.0156,-0.756 0.1349,-1.114c0.1192,-0.358 0.3095,-0.689 0.5594,-0.972c0.2499,-0.284 0.5543,-0.514 0.895,-0.677c0.3407,-0.163 0.7108,-0.256 1.0882,-0.273zM14.0446,12.292c0.1033,-1.357 -0.2413,-2.71 -0.981,-3.852c0.3774,0.017 0.7475,0.11 1.0882,0.273c0.3407,0.163 0.6451,0.393 0.895,0.677c0.2499,0.283 0.4402,0.614 0.5594,0.972c0.1193,0.358 0.1652,0.737 0.1349,1.114l-0.0075,0.09c-0.0065,0.082 -0.0363,0.159 -0.086,0.224c-0.0496,0.065 -0.1169,0.114 -0.1938,0.141l-0.0862,0.03c-0.4253,0.15 -0.867,0.262 -1.323,0.331z" fill="currentColor"/>
</g></svg>